Coordinates
version=1
nRows=4
nColumns=63
inDegrees=yes

Units are S.I. units (second, meters, Newtons, ...)
If the header above contains a line with 'inDegrees', this indicates whether rotational values are in degrees (yes) or radians (no).

endheader
time	pelvis_tilt	pelvis_list	pelvis_rotation	pelvis_tx	pelvis_ty	pelvis_tz	hip_flexion_r	hip_adduction_r	hip_rotation_r	knee_angle_r	knee_angle_r_beta	ankle_angle_r	subtalar_angle_r	mtp_angle_r	hip_flexion_l	hip_adduction_l	hip_rotation_l	knee_angle_l	knee_angle_l_beta	ankle_angle_l	subtalar_angle_l	mtp_angle_l	L5_S1_Flex_Ext	L5_S1_Lat_Bending	L5_S1_axial_rotation	L4_L5_Flex_Ext	L4_L5_Lat_Bending	L4_L5_axial_rotation	L3_L4_Flex_Ext	L3_L4_Lat_Bending	L3_L4_axial_rotation	L2_L3_Flex_Ext	L2_L3_Lat_Bending	L2_L3_axial_rotation	L1_L2_Flex_Ext	L1_L2_Lat_Bending	L1_L2_axial_rotation	L1_T12_Flex_Ext	L1_T12_Lat_Bending	L1_T12_axial_rotation	Abs_r3	Abs_r2	Abs_r1	Abs_t1	Abs_t2	neck_flexion	neck_bending	neck_rotation	arm_flex_r	arm_add_r	arm_rot_r	elbow_flex_r	pro_sup_r	wrist_flex_r	wrist_dev_r	arm_flex_l	arm_add_l	arm_rot_l	elbow_flex_l	pro_sup_l	wrist_flex_l	wrist_dev_l
      0.00000000	      0.51301298	     -5.54636831	    101.97318520	      0.27146681	      0.80373265	      0.91845288	      2.54063274	     -0.15999134	      1.11478299	      4.52379931	      0.07895519	     20.38444305	     -2.37351444	      0.00000000	      4.78341929	     -0.79116366	      0.07393705	      5.45730036	      0.09524786	     26.67808994	      1.72307946	      0.00000000	      0.09037340	      0.15534565	      0.29255767	      0.16783244	      0.20660972	      0.31084252	      0.14847446	      0.37770742	      0.31084252	      0.10328776	      0.37770742	      0.25598796	      0.08392074	      0.31678085	      0.23770310	      0.05163936	      0.24063041	      0.21941825	      0.64552817	      1.75730108	      1.62711798	      0.00000000	      0.00000000	     24.36499437	      0.15702887	      6.81677137	     17.64448164	     -3.49382429	     32.05410429	     35.35045245	     88.34315556	     11.06956292	     28.77475764	     17.57713455	     -3.46157126	     39.09638254	     46.85594626	     35.09346775	    -24.23385722	     14.11183331
      0.01666667	      0.57890565	     -5.31994608	    101.44978356	      0.27205245	      0.80389918	      0.91789476	      2.32774450	     -0.03744762	      1.94193354	      4.08317884	      0.07126491	     20.57708592	     -1.77526754	      0.00000000	      4.41164737	     -0.96233233	      0.24704537	      5.17643643	      0.09034586	     26.95540577	      2.03228887	      0.00000000	      0.05791939	      0.16139884	      0.19698999	      0.10756210	      0.21466045	      0.20930186	      0.09515577	      0.39242513	      0.20930186	      0.06619607	      0.39242513	      0.17236624	      0.05378395	      0.32912451	      0.16005436	      0.03309514	      0.25000680	      0.14774249	      0.41371241	      1.82577592	      1.09559921	      0.00000000	      0.00000000	     24.38229493	     -0.80196798	      5.03821982	     18.09382436	     -3.07160289	     32.92271397	     34.97576066	     88.29294148	     10.93634576	     28.61882851	     16.62509341	     -3.63322923	     37.53607173	     47.16683519	     36.08896021	    -24.24560918	     12.61651737
      0.03333333	      0.69380871	     -5.17568026	    100.96207498	      0.27255664	      0.80397559	      0.91736951	      2.25877268	      0.07639271	      1.69585042	      3.94792959	      0.06890437	     20.96880438	     -0.06637044	      0.00000000	      4.17322586	     -1.17195573	      0.13066429	      5.02085445	      0.08763044	     27.16968382	      2.41568427	      0.00000000	      0.04129710	      0.17389097	      0.15296055	      0.07669285	      0.23127499	      0.16252058	      0.06784701	      0.42279851	      0.16252058	      0.04719846	      0.42279851	      0.13384048	      0.03834849	      0.35459847	      0.12428045	      0.02359716	      0.26935712	      0.11472041	      0.29498108	      1.96708946	      0.85072069	      0.00000000	      0.00000000	     24.34599961	     -1.43079770	      3.98966154	     18.52362300	     -2.95817033	     34.42030124	     34.62953215	     88.13174737	     10.85001660	     28.06563742	     16.06288647	     -3.71609736	     36.39156954	     47.22662453	     38.28217248	    -23.89458629	     12.84318022
      0.05000000	      0.71417998	     -5.06288586	    100.44046288	      0.27317813	      0.80402909	      0.91681392	      2.17525974	      0.11339156	      1.80200986	      3.90855897	      0.06821722	     21.16137240	      0.83741878	      0.00000000	      3.94248811	     -1.28813676	     -0.29686523	      4.88730671	      0.08529959	     27.36586065	      2.93161606	      0.00000000	      0.02688754	      0.17633401	      0.18254870	      0.04993284	      0.23452424	      0.19395799	      0.04417353	      0.42873852	      0.19395799	      0.03072976	      0.42873852	      0.15973011	      0.02496777	      0.35958032	      0.14832082	      0.01536354	      0.27314139	      0.13691152	      0.19205498	      1.99472564	      1.01528108	      0.00000000	      0.00000000	     24.26946826	     -1.71217246	      3.52125690	     18.69935898	     -2.86196424	     35.12657348	     34.40782525	     88.08156570	     11.02311194	     27.88036727	     15.89947225	     -3.73097107	     35.89891231	     47.09334367	     40.37987906	    -23.75213267	     13.74037882
